<mxfile host="app.diagrams.net" agent="Mozilla/5.0 (Windows NT 10.0; Win64; x64) AppleWebKit/537.36 (KHTML, like Gecko) Chrome/135.0.0.0 Safari/537.36" version="26.2.14">
  <diagram name="Page-1" id="e7e014a7-5840-1c2e-5031-d8a46d1fe8dd">
    <mxGraphModel dx="1426" dy="751" grid="1" gridSize="10" guides="1" tooltips="1" connect="1" arrows="1" fold="1" page="1" pageScale="1" pageWidth="1169" pageHeight="826" background="none" math="0" shadow="0">
      <root>
        <mxCell id="0" />
        <mxCell id="1" parent="0" />
        <mxCell id="7nI64X__2j-Hu28zdMV8-127" value="" style="rounded=1;whiteSpace=wrap;html=1;arcSize=4;" parent="1" vertex="1">
          <mxGeometry x="69" y="20" width="1211" height="2110" as="geometry" />
        </mxCell>
        <mxCell id="2" value="Nullpointer Software GmbH" style="swimlane;whiteSpace=wrap" parent="1" vertex="1">
          <mxGeometry x="150" y="130" width="940" height="1870" as="geometry" />
        </mxCell>
        <mxCell id="3" value="Requirements Engineer" style="swimlane;whiteSpace=wrap" parent="2" vertex="1">
          <mxGeometry y="22" width="160" height="1848" as="geometry" />
        </mxCell>
        <mxCell id="7nI64X__2j-Hu28zdMV8-50" value="" style="edgeStyle=orthogonalEdgeStyle;rounded=0;orthogonalLoop=1;jettySize=auto;html=1;exitX=0.483;exitY=0.733;exitDx=0;exitDy=0;exitPerimeter=0;endArrow=open;endFill=0;" parent="3" source="5" target="7nI64X__2j-Hu28zdMV8-49" edge="1">
          <mxGeometry relative="1" as="geometry" />
        </mxCell>
        <mxCell id="5" value="" style="ellipse;shape=startState;fillColor=#000000;strokeColor=none;" parent="3" vertex="1">
          <mxGeometry x="65" y="40" width="30" height="30" as="geometry" />
        </mxCell>
        <mxCell id="7nI64X__2j-Hu28zdMV8-99" style="edgeStyle=orthogonalEdgeStyle;rounded=0;orthogonalLoop=1;jettySize=auto;html=1;exitX=0.5;exitY=1;exitDx=0;exitDy=0;entryX=0.5;entryY=0;entryDx=0;entryDy=0;endArrow=open;endFill=0;" parent="3" source="7nI64X__2j-Hu28zdMV8-49" target="7nI64X__2j-Hu28zdMV8-51" edge="1">
          <mxGeometry relative="1" as="geometry" />
        </mxCell>
        <mxCell id="7nI64X__2j-Hu28zdMV8-49" value="Fachkonzept erstellen" style="rounded=1;whiteSpace=wrap;html=1;" parent="3" vertex="1">
          <mxGeometry x="20" y="110" width="120" height="60" as="geometry" />
        </mxCell>
        <mxCell id="7nI64X__2j-Hu28zdMV8-51" value="Fachkonzept" style="rounded=0;whiteSpace=wrap;html=1;" parent="3" vertex="1">
          <mxGeometry x="20" y="208" width="120" height="60" as="geometry" />
        </mxCell>
        <mxCell id="7nI64X__2j-Hu28zdMV8-116" style="edgeStyle=orthogonalEdgeStyle;rounded=0;orthogonalLoop=1;jettySize=auto;html=1;entryX=0.5;entryY=1;entryDx=0;entryDy=0;endArrow=open;endFill=0;" parent="3" source="7nI64X__2j-Hu28zdMV8-114" target="7nI64X__2j-Hu28zdMV8-51" edge="1">
          <mxGeometry relative="1" as="geometry" />
        </mxCell>
        <mxCell id="7nI64X__2j-Hu28zdMV8-114" value="Fachkonzept überarbeiten" style="rounded=1;whiteSpace=wrap;html=1;" parent="3" vertex="1">
          <mxGeometry x="20" y="328" width="120" height="60" as="geometry" />
        </mxCell>
        <mxCell id="7nI64X__2j-Hu28zdMV8-117" value="Fachkonzept überarbeiten" style="rounded=1;whiteSpace=wrap;html=1;" parent="3" vertex="1">
          <mxGeometry x="20" y="878" width="120" height="60" as="geometry" />
        </mxCell>
        <mxCell id="FuTrQBoRgf2_QPBbG5Mb-44" value="Letter of Acceptance (unterschrieben)" style="rounded=0;whiteSpace=wrap;html=1;" parent="3" vertex="1">
          <mxGeometry x="20" y="1500" width="120" height="60" as="geometry" />
        </mxCell>
        <mxCell id="4" value="Project Management Office" style="swimlane;whiteSpace=wrap" parent="2" vertex="1">
          <mxGeometry x="160" y="22" width="190" height="1848" as="geometry" />
        </mxCell>
        <mxCell id="7nI64X__2j-Hu28zdMV8-61" value="" style="edgeStyle=orthogonalEdgeStyle;rounded=0;orthogonalLoop=1;jettySize=auto;html=1;entryX=0.5;entryY=0;entryDx=0;entryDy=0;endArrow=open;endFill=0;" parent="4" source="7nI64X__2j-Hu28zdMV8-52" target="7nI64X__2j-Hu28zdMV8-62" edge="1">
          <mxGeometry relative="1" as="geometry">
            <mxPoint x="95" y="208" as="targetPoint" />
          </mxGeometry>
        </mxCell>
        <mxCell id="7nI64X__2j-Hu28zdMV8-52" value="Fachkonzept überarbeiten" style="rounded=1;whiteSpace=wrap;html=1;" parent="4" vertex="1">
          <mxGeometry x="35" y="110" width="120" height="60" as="geometry" />
        </mxCell>
        <mxCell id="7nI64X__2j-Hu28zdMV8-64" value="" style="edgeStyle=orthogonalEdgeStyle;rounded=0;orthogonalLoop=1;jettySize=auto;html=1;endArrow=open;endFill=0;" parent="4" source="7nI64X__2j-Hu28zdMV8-62" target="7nI64X__2j-Hu28zdMV8-63" edge="1">
          <mxGeometry relative="1" as="geometry" />
        </mxCell>
        <mxCell id="7nI64X__2j-Hu28zdMV8-62" value="Stakeholder benachrichtigen" style="rounded=1;whiteSpace=wrap;html=1;" parent="4" vertex="1">
          <mxGeometry x="35" y="208" width="120" height="60" as="geometry" />
        </mxCell>
        <mxCell id="7nI64X__2j-Hu28zdMV8-63" value="" style="line;strokeWidth=4;html=1;perimeter=backbonePerimeter;points=[];outlineConnect=0;" parent="4" vertex="1">
          <mxGeometry x="22.5" y="308" width="145" height="10" as="geometry" />
        </mxCell>
        <mxCell id="7nI64X__2j-Hu28zdMV8-105" style="edgeStyle=orthogonalEdgeStyle;rounded=0;orthogonalLoop=1;jettySize=auto;html=1;endArrow=open;endFill=0;" parent="4" source="7nI64X__2j-Hu28zdMV8-100" target="7nI64X__2j-Hu28zdMV8-104" edge="1">
          <mxGeometry relative="1" as="geometry" />
        </mxCell>
        <mxCell id="7nI64X__2j-Hu28zdMV8-100" value="" style="line;strokeWidth=4;html=1;perimeter=backbonePerimeter;points=[];outlineConnect=0;" parent="4" vertex="1">
          <mxGeometry x="22.5" y="608" width="145" height="22" as="geometry" />
        </mxCell>
        <mxCell id="7nI64X__2j-Hu28zdMV8-107" style="edgeStyle=orthogonalEdgeStyle;rounded=0;orthogonalLoop=1;jettySize=auto;html=1;entryX=0.5;entryY=0;entryDx=0;entryDy=0;endArrow=open;endFill=0;" parent="4" source="7nI64X__2j-Hu28zdMV8-104" target="7nI64X__2j-Hu28zdMV8-106" edge="1">
          <mxGeometry relative="1" as="geometry">
            <Array as="points">
              <mxPoint x="143" y="738" />
            </Array>
          </mxGeometry>
        </mxCell>
        <mxCell id="7nI64X__2j-Hu28zdMV8-104" value="Gesamtbewertung generieren" style="rounded=1;whiteSpace=wrap;html=1;" parent="4" vertex="1">
          <mxGeometry x="35" y="668" width="120" height="60" as="geometry" />
        </mxCell>
        <mxCell id="7nI64X__2j-Hu28zdMV8-122" style="edgeStyle=orthogonalEdgeStyle;rounded=0;orthogonalLoop=1;jettySize=auto;html=1;endArrow=open;endFill=0;" parent="4" source="7nI64X__2j-Hu28zdMV8-106" target="7nI64X__2j-Hu28zdMV8-121" edge="1">
          <mxGeometry relative="1" as="geometry">
            <Array as="points">
              <mxPoint x="143" y="948" />
              <mxPoint x="143" y="948" />
            </Array>
          </mxGeometry>
        </mxCell>
        <mxCell id="FuTrQBoRgf2_QPBbG5Mb-20" value="[keine Fehler]" style="edgeLabel;html=1;align=center;verticalAlign=middle;resizable=0;points=[];" parent="7nI64X__2j-Hu28zdMV8-122" vertex="1" connectable="0">
          <mxGeometry x="-0.2242" relative="1" as="geometry">
            <mxPoint y="54" as="offset" />
          </mxGeometry>
        </mxCell>
        <mxCell id="7nI64X__2j-Hu28zdMV8-106" value="" style="rhombus;whiteSpace=wrap;html=1;" parent="4" vertex="1">
          <mxGeometry x="117.5" y="768" width="50" height="50" as="geometry" />
        </mxCell>
        <mxCell id="7nI64X__2j-Hu28zdMV8-119" value="[kritische&lt;div&gt;&amp;nbsp;Fehler]&lt;/div&gt;" style="text;html=1;align=center;verticalAlign=middle;resizable=0;points=[];autosize=1;strokeColor=none;fillColor=none;" parent="4" vertex="1">
          <mxGeometry x="60" y="758" width="70" height="40" as="geometry" />
        </mxCell>
        <mxCell id="7nI64X__2j-Hu28zdMV8-121" value="Abnahme ohne Vorbehalt vorbereiten" style="rounded=1;whiteSpace=wrap;html=1;" parent="4" vertex="1">
          <mxGeometry x="60" y="988" width="120" height="60" as="geometry" />
        </mxCell>
        <mxCell id="FuTrQBoRgf2_QPBbG5Mb-36" value="" style="line;strokeWidth=4;html=1;perimeter=backbonePerimeter;points=[];outlineConnect=0;" parent="4" vertex="1">
          <mxGeometry x="22.5" y="1338" width="145" height="10" as="geometry" />
        </mxCell>
        <mxCell id="FuTrQBoRgf2_QPBbG5Mb-55" style="edgeStyle=orthogonalEdgeStyle;rounded=0;orthogonalLoop=1;jettySize=auto;html=1;endArrow=open;endFill=0;" parent="4" source="FuTrQBoRgf2_QPBbG5Mb-50" target="FuTrQBoRgf2_QPBbG5Mb-54" edge="1">
          <mxGeometry relative="1" as="geometry" />
        </mxCell>
        <mxCell id="FuTrQBoRgf2_QPBbG5Mb-50" value="" style="line;strokeWidth=4;html=1;perimeter=backbonePerimeter;points=[];outlineConnect=0;" parent="4" vertex="1">
          <mxGeometry x="22.5" y="1618" width="145" height="10" as="geometry" />
        </mxCell>
        <mxCell id="FuTrQBoRgf2_QPBbG5Mb-54" value="Fachkonzept" style="rounded=0;whiteSpace=wrap;html=1;" parent="4" vertex="1">
          <mxGeometry x="35" y="1678" width="120" height="60" as="geometry" />
        </mxCell>
        <mxCell id="7nI64X__2j-Hu28zdMV8-53" value="Projektleiter (Kunde)" style="swimlane;whiteSpace=wrap;startSize=23;" parent="2" vertex="1">
          <mxGeometry x="350" y="22" width="190" height="1848" as="geometry" />
        </mxCell>
        <mxCell id="7nI64X__2j-Hu28zdMV8-96" style="edgeStyle=orthogonalEdgeStyle;rounded=0;orthogonalLoop=1;jettySize=auto;html=1;entryX=0.5;entryY=0;entryDx=0;entryDy=0;endArrow=open;endFill=0;" parent="7nI64X__2j-Hu28zdMV8-53" source="7nI64X__2j-Hu28zdMV8-84" target="7nI64X__2j-Hu28zdMV8-95" edge="1">
          <mxGeometry relative="1" as="geometry" />
        </mxCell>
        <mxCell id="7nI64X__2j-Hu28zdMV8-84" value="Review durchführen" style="rounded=1;whiteSpace=wrap;html=1;" parent="7nI64X__2j-Hu28zdMV8-53" vertex="1">
          <mxGeometry x="35" y="388" width="120" height="60" as="geometry" />
        </mxCell>
        <mxCell id="7nI64X__2j-Hu28zdMV8-95" value="Anmerkungen" style="rounded=0;whiteSpace=wrap;html=1;" parent="7nI64X__2j-Hu28zdMV8-53" vertex="1">
          <mxGeometry x="35" y="478" width="120" height="60" as="geometry" />
        </mxCell>
        <mxCell id="FuTrQBoRgf2_QPBbG5Mb-39" value="Unterschrift setzen" style="rounded=1;whiteSpace=wrap;html=1;" parent="7nI64X__2j-Hu28zdMV8-53" vertex="1">
          <mxGeometry x="35" y="1398" width="120" height="60" as="geometry" />
        </mxCell>
        <mxCell id="7nI64X__2j-Hu28zdMV8-55" value="IT-Leiterin" style="swimlane;whiteSpace=wrap;startSize=23;" parent="2" vertex="1">
          <mxGeometry x="540" y="22" width="200" height="1848" as="geometry" />
        </mxCell>
        <mxCell id="7nI64X__2j-Hu28zdMV8-97" style="edgeStyle=orthogonalEdgeStyle;rounded=0;orthogonalLoop=1;jettySize=auto;html=1;exitX=0.5;exitY=1;exitDx=0;exitDy=0;entryX=0.5;entryY=0;entryDx=0;entryDy=0;endArrow=open;endFill=0;" parent="7nI64X__2j-Hu28zdMV8-55" source="7nI64X__2j-Hu28zdMV8-65" target="7nI64X__2j-Hu28zdMV8-94" edge="1">
          <mxGeometry relative="1" as="geometry" />
        </mxCell>
        <mxCell id="7nI64X__2j-Hu28zdMV8-65" value="Review durchführen" style="rounded=1;whiteSpace=wrap;html=1;" parent="7nI64X__2j-Hu28zdMV8-55" vertex="1">
          <mxGeometry x="40" y="388" width="120" height="60" as="geometry" />
        </mxCell>
        <mxCell id="7nI64X__2j-Hu28zdMV8-94" value="Anmerkungen" style="rounded=0;whiteSpace=wrap;html=1;" parent="7nI64X__2j-Hu28zdMV8-55" vertex="1">
          <mxGeometry x="40" y="478" width="120" height="60" as="geometry" />
        </mxCell>
        <mxCell id="FuTrQBoRgf2_QPBbG5Mb-46" value="Letter of Acceptance (unterschrieben)" style="rounded=0;whiteSpace=wrap;html=1;" parent="7nI64X__2j-Hu28zdMV8-55" vertex="1">
          <mxGeometry x="40" y="1500" width="120" height="60" as="geometry" />
        </mxCell>
        <mxCell id="7nI64X__2j-Hu28zdMV8-57" style="edgeStyle=orthogonalEdgeStyle;rounded=0;orthogonalLoop=1;jettySize=auto;html=1;entryX=0;entryY=0.5;entryDx=0;entryDy=0;endArrow=open;endFill=0;" parent="2" source="7nI64X__2j-Hu28zdMV8-51" target="7nI64X__2j-Hu28zdMV8-52" edge="1">
          <mxGeometry relative="1" as="geometry" />
        </mxCell>
        <mxCell id="7nI64X__2j-Hu28zdMV8-90" value="" style="edgeStyle=orthogonalEdgeStyle;rounded=0;orthogonalLoop=1;jettySize=auto;html=1;endArrow=open;endFill=0;entryX=0.537;entryY=-0.013;entryDx=0;entryDy=0;entryPerimeter=0;" parent="2" source="7nI64X__2j-Hu28zdMV8-63" target="7nI64X__2j-Hu28zdMV8-84" edge="1">
          <mxGeometry relative="1" as="geometry">
            <mxPoint x="220" y="340" as="sourcePoint" />
            <mxPoint x="220" y="383" as="targetPoint" />
            <Array as="points">
              <mxPoint x="255" y="360" />
              <mxPoint x="449" y="360" />
              <mxPoint x="449" y="409" />
            </Array>
          </mxGeometry>
        </mxCell>
        <mxCell id="7nI64X__2j-Hu28zdMV8-92" value="" style="edgeStyle=orthogonalEdgeStyle;rounded=0;orthogonalLoop=1;jettySize=auto;html=1;endArrow=open;endFill=0;entryX=0.5;entryY=0;entryDx=0;entryDy=0;" parent="2" source="7nI64X__2j-Hu28zdMV8-63" target="7nI64X__2j-Hu28zdMV8-65" edge="1">
          <mxGeometry relative="1" as="geometry">
            <mxPoint x="210" y="340" as="sourcePoint" />
            <mxPoint x="404" y="413" as="targetPoint" />
            <Array as="points">
              <mxPoint x="210" y="364" />
              <mxPoint x="640" y="364" />
            </Array>
          </mxGeometry>
        </mxCell>
        <mxCell id="7nI64X__2j-Hu28zdMV8-101" style="edgeStyle=orthogonalEdgeStyle;rounded=0;orthogonalLoop=1;jettySize=auto;html=1;endArrow=open;endFill=0;" parent="2" source="7nI64X__2j-Hu28zdMV8-95" target="7nI64X__2j-Hu28zdMV8-100" edge="1">
          <mxGeometry relative="1" as="geometry">
            <Array as="points">
              <mxPoint x="445" y="580" />
              <mxPoint x="210" y="580" />
            </Array>
          </mxGeometry>
        </mxCell>
        <mxCell id="7nI64X__2j-Hu28zdMV8-102" style="edgeStyle=orthogonalEdgeStyle;rounded=0;orthogonalLoop=1;jettySize=auto;html=1;endArrow=open;endFill=0;" parent="2" source="7nI64X__2j-Hu28zdMV8-94" target="7nI64X__2j-Hu28zdMV8-100" edge="1">
          <mxGeometry relative="1" as="geometry">
            <Array as="points">
              <mxPoint x="640" y="600" />
              <mxPoint x="255" y="600" />
            </Array>
          </mxGeometry>
        </mxCell>
        <mxCell id="7nI64X__2j-Hu28zdMV8-115" style="edgeStyle=orthogonalEdgeStyle;rounded=0;orthogonalLoop=1;jettySize=auto;html=1;entryX=0.5;entryY=1;entryDx=0;entryDy=0;endArrow=open;endFill=0;" parent="2" source="FuTrQBoRgf2_QPBbG5Mb-14" target="7nI64X__2j-Hu28zdMV8-114" edge="1">
          <mxGeometry relative="1" as="geometry" />
        </mxCell>
        <mxCell id="FuTrQBoRgf2_QPBbG5Mb-60" value="[Zeit drängt nicht]" style="edgeLabel;html=1;align=center;verticalAlign=middle;resizable=0;points=[];" parent="7nI64X__2j-Hu28zdMV8-115" vertex="1" connectable="0">
          <mxGeometry x="-0.7793" y="3" relative="1" as="geometry">
            <mxPoint x="-4" y="-3" as="offset" />
          </mxGeometry>
        </mxCell>
        <mxCell id="7nI64X__2j-Hu28zdMV8-118" style="edgeStyle=orthogonalEdgeStyle;rounded=0;orthogonalLoop=1;jettySize=auto;html=1;exitX=0.5;exitY=1;exitDx=0;exitDy=0;entryX=0.5;entryY=0;entryDx=0;entryDy=0;endArrow=open;endFill=0;" parent="2" source="7nI64X__2j-Hu28zdMV8-106" target="7nI64X__2j-Hu28zdMV8-117" edge="1">
          <mxGeometry relative="1" as="geometry">
            <Array as="points">
              <mxPoint x="303" y="880" />
              <mxPoint x="80" y="880" />
            </Array>
          </mxGeometry>
        </mxCell>
        <mxCell id="FuTrQBoRgf2_QPBbG5Mb-28" value="[weniger&lt;div&gt;kritische&amp;nbsp;&lt;div&gt;Fehler]&lt;/div&gt;&lt;/div&gt;" style="edgeLabel;html=1;align=center;verticalAlign=middle;resizable=0;points=[];" parent="7nI64X__2j-Hu28zdMV8-118" vertex="1" connectable="0">
          <mxGeometry x="-0.4292" y="3" relative="1" as="geometry">
            <mxPoint as="offset" />
          </mxGeometry>
        </mxCell>
        <mxCell id="FuTrQBoRgf2_QPBbG5Mb-14" value="" style="rhombus;whiteSpace=wrap;html=1;" parent="2" vertex="1">
          <mxGeometry x="180" y="790" width="50" height="50" as="geometry" />
        </mxCell>
        <mxCell id="FuTrQBoRgf2_QPBbG5Mb-17" style="edgeStyle=orthogonalEdgeStyle;rounded=0;orthogonalLoop=1;jettySize=auto;html=1;entryX=1;entryY=0.5;entryDx=0;entryDy=0;endArrow=open;endFill=0;" parent="2" source="7nI64X__2j-Hu28zdMV8-106" target="FuTrQBoRgf2_QPBbG5Mb-14" edge="1">
          <mxGeometry relative="1" as="geometry" />
        </mxCell>
        <mxCell id="FuTrQBoRgf2_QPBbG5Mb-19" style="edgeStyle=orthogonalEdgeStyle;rounded=0;orthogonalLoop=1;jettySize=auto;html=1;entryX=0.139;entryY=0.036;entryDx=0;entryDy=0;entryPerimeter=0;endArrow=open;endFill=0;" parent="2" source="7nI64X__2j-Hu28zdMV8-117" target="7nI64X__2j-Hu28zdMV8-121" edge="1">
          <mxGeometry relative="1" as="geometry" />
        </mxCell>
        <mxCell id="FuTrQBoRgf2_QPBbG5Mb-42" style="edgeStyle=orthogonalEdgeStyle;rounded=0;orthogonalLoop=1;jettySize=auto;html=1;entryX=0.5;entryY=0;entryDx=0;entryDy=0;endArrow=open;endFill=0;" parent="2" source="FuTrQBoRgf2_QPBbG5Mb-36" target="FuTrQBoRgf2_QPBbG5Mb-39" edge="1">
          <mxGeometry relative="1" as="geometry">
            <Array as="points">
              <mxPoint x="250" y="1390" />
              <mxPoint x="445" y="1390" />
            </Array>
          </mxGeometry>
        </mxCell>
        <mxCell id="FuTrQBoRgf2_QPBbG5Mb-51" style="edgeStyle=orthogonalEdgeStyle;rounded=0;orthogonalLoop=1;jettySize=auto;html=1;endArrow=open;endFill=0;" parent="2" source="FuTrQBoRgf2_QPBbG5Mb-44" target="FuTrQBoRgf2_QPBbG5Mb-50" edge="1">
          <mxGeometry relative="1" as="geometry">
            <Array as="points">
              <mxPoint x="80" y="1610" />
              <mxPoint x="210" y="1610" />
            </Array>
          </mxGeometry>
        </mxCell>
        <mxCell id="FuTrQBoRgf2_QPBbG5Mb-53" style="edgeStyle=orthogonalEdgeStyle;rounded=0;orthogonalLoop=1;jettySize=auto;html=1;endArrow=open;endFill=0;" parent="2" source="FuTrQBoRgf2_QPBbG5Mb-46" target="FuTrQBoRgf2_QPBbG5Mb-50" edge="1">
          <mxGeometry relative="1" as="geometry">
            <Array as="points">
              <mxPoint x="640" y="1630" />
              <mxPoint x="290" y="1630" />
            </Array>
          </mxGeometry>
        </mxCell>
        <mxCell id="7nI64X__2j-Hu28zdMV8-67" value="Extern" style="swimlane;whiteSpace=wrap" parent="1" vertex="1">
          <mxGeometry x="1090" y="130" width="160" height="1870" as="geometry" />
        </mxCell>
        <mxCell id="7nI64X__2j-Hu28zdMV8-68" value="Gutachter" style="swimlane;whiteSpace=wrap;startSize=23;" parent="7nI64X__2j-Hu28zdMV8-67" vertex="1">
          <mxGeometry y="22" width="160" height="1848" as="geometry" />
        </mxCell>
        <mxCell id="7nI64X__2j-Hu28zdMV8-98" style="edgeStyle=orthogonalEdgeStyle;rounded=0;orthogonalLoop=1;jettySize=auto;html=1;exitX=0.5;exitY=1;exitDx=0;exitDy=0;endArrow=open;endFill=0;" parent="7nI64X__2j-Hu28zdMV8-68" source="7nI64X__2j-Hu28zdMV8-83" target="7nI64X__2j-Hu28zdMV8-93" edge="1">
          <mxGeometry relative="1" as="geometry" />
        </mxCell>
        <mxCell id="7nI64X__2j-Hu28zdMV8-83" value="Review durchführen" style="rounded=1;whiteSpace=wrap;html=1;" parent="7nI64X__2j-Hu28zdMV8-68" vertex="1">
          <mxGeometry x="20" y="388" width="120" height="60" as="geometry" />
        </mxCell>
        <mxCell id="7nI64X__2j-Hu28zdMV8-93" value="Anmerkungen" style="rounded=0;whiteSpace=wrap;html=1;" parent="7nI64X__2j-Hu28zdMV8-68" vertex="1">
          <mxGeometry x="20" y="478" width="120" height="60" as="geometry" />
        </mxCell>
        <mxCell id="7nI64X__2j-Hu28zdMV8-91" value="" style="edgeStyle=orthogonalEdgeStyle;rounded=0;orthogonalLoop=1;jettySize=auto;html=1;endArrow=open;endFill=0;" parent="1" source="7nI64X__2j-Hu28zdMV8-63" target="7nI64X__2j-Hu28zdMV8-83" edge="1">
          <mxGeometry relative="1" as="geometry">
            <mxPoint x="450" y="470" as="sourcePoint" />
            <mxPoint x="644" y="533" as="targetPoint" />
            <Array as="points">
              <mxPoint x="450" y="484" />
              <mxPoint x="1170" y="484" />
            </Array>
          </mxGeometry>
        </mxCell>
        <mxCell id="7nI64X__2j-Hu28zdMV8-103" style="edgeStyle=orthogonalEdgeStyle;rounded=0;orthogonalLoop=1;jettySize=auto;html=1;exitX=0.5;exitY=1;exitDx=0;exitDy=0;endArrow=open;endFill=0;" parent="1" source="7nI64X__2j-Hu28zdMV8-93" target="7nI64X__2j-Hu28zdMV8-100" edge="1">
          <mxGeometry relative="1" as="geometry">
            <mxPoint x="480" y="750" as="targetPoint" />
            <Array as="points">
              <mxPoint x="1190" y="740" />
              <mxPoint x="430" y="740" />
            </Array>
          </mxGeometry>
        </mxCell>
        <mxCell id="7nI64X__2j-Hu28zdMV8-126" value="&lt;h1 style=&quot;margin-top: 0px;&quot;&gt;&lt;font style=&quot;font-size: 16px;&quot;&gt;Abnahme eines Fachkonzepts&lt;/font&gt;&lt;/h1&gt;" style="text;html=1;whiteSpace=wrap;overflow=hidden;rounded=0;" parent="1" vertex="1">
          <mxGeometry x="140" y="60" width="240" height="40" as="geometry" />
        </mxCell>
        <mxCell id="FuTrQBoRgf2_QPBbG5Mb-5" value="Software-Architekt" style="swimlane;whiteSpace=wrap;startSize=23;" parent="1" vertex="1">
          <mxGeometry x="890" y="152" width="200" height="1848" as="geometry" />
        </mxCell>
        <mxCell id="FuTrQBoRgf2_QPBbG5Mb-30" style="edgeStyle=orthogonalEdgeStyle;rounded=0;orthogonalLoop=1;jettySize=auto;html=1;endArrow=open;endFill=0;" parent="1" source="FuTrQBoRgf2_QPBbG5Mb-21" target="FuTrQBoRgf2_QPBbG5Mb-29" edge="1">
          <mxGeometry relative="1" as="geometry">
            <Array as="points">
              <mxPoint x="350" y="1335" />
            </Array>
          </mxGeometry>
        </mxCell>
        <mxCell id="FuTrQBoRgf2_QPBbG5Mb-21" value="Abnahme mit Vorbehalt vorbereiten" style="rounded=1;whiteSpace=wrap;html=1;" parent="1" vertex="1">
          <mxGeometry x="320" y="1220" width="120" height="60" as="geometry" />
        </mxCell>
        <mxCell id="FuTrQBoRgf2_QPBbG5Mb-22" style="edgeStyle=orthogonalEdgeStyle;rounded=0;orthogonalLoop=1;jettySize=auto;html=1;endArrow=open;endFill=0;" parent="1" source="FuTrQBoRgf2_QPBbG5Mb-14" target="FuTrQBoRgf2_QPBbG5Mb-21" edge="1">
          <mxGeometry relative="1" as="geometry">
            <Array as="points">
              <mxPoint x="355" y="1160" />
              <mxPoint x="355" y="1160" />
            </Array>
          </mxGeometry>
        </mxCell>
        <mxCell id="FuTrQBoRgf2_QPBbG5Mb-23" value="&lt;span style=&quot;color: rgba(0, 0, 0, 0); font-family: monospace; font-size: 0px; text-align: start; background-color: rgb(236, 236, 236);&quot;&gt;%3CmxGraphModel%3E%3Croot%3E%3CmxCell%20id%3D%220%22%2F%3E%3CmxCell%20id%3D%221%22%20parent%3D%220%22%2F%3E%3CmxCell%20id%3D%222%22%20value%3D%22Abnahme%20ohne%20Vorbehalt%20vorbereiten%22%20style%3D%22rounded%3D1%3BwhiteSpace%3Dwrap%3Bhtml%3D1%3B%22%20vertex%3D%221%22%20parent%3D%221%22%3E%3CmxGeometry%20x%3D%22370%22%20y%3D%221140%22%20width%3D%22120%22%20height%3D%2260%22%20as%3D%22geometry%22%2F%3E%3C%2FmxCell%3E%3C%2Froot%3E%3C%2FmxGraphModel%3E&lt;/span&gt;" style="edgeLabel;html=1;align=center;verticalAlign=middle;resizable=0;points=[];" parent="FuTrQBoRgf2_QPBbG5Mb-22" vertex="1" connectable="0">
          <mxGeometry x="-0.8643" y="-1" relative="1" as="geometry">
            <mxPoint as="offset" />
          </mxGeometry>
        </mxCell>
        <mxCell id="FuTrQBoRgf2_QPBbG5Mb-24" value="&lt;span style=&quot;color: rgba(0, 0, 0, 0); font-family: monospace; font-size: 0px; text-align: start; background-color: rgb(236, 236, 236);&quot;&gt;%3CmxGraphModel%3E%3Croot%3E%3CmxCell%20id%3D%220%22%2F%3E%3CmxCell%20id%3D%221%22%20parent%3D%220%22%2F%3E%3CmxCell%20id%3D%222%22%20value%3D%22Abnahme%20ohne%20Vorbehalt%20vorbereiten%22%20style%3D%22rounded%3D1%3BwhiteSpace%3Dwrap%3Bhtml%3D1%3B%22%20vertex%3D%221%22%20parent%3D%221%22%3E%3CmxGeometry%20x%3D%22370%22%20y%3D%221140%22%20width%3D%22120%22%20height%3D%2260%22%20as%3D%22geometry%22%2F%3E%3C%2FmxCell%3E%3C%2Froot%3E%3C%2FmxGraphModel%3E&lt;/span&gt;" style="edgeLabel;html=1;align=center;verticalAlign=middle;resizable=0;points=[];" parent="FuTrQBoRgf2_QPBbG5Mb-22" vertex="1" connectable="0">
          <mxGeometry x="-0.8588" y="-1" relative="1" as="geometry">
            <mxPoint as="offset" />
          </mxGeometry>
        </mxCell>
        <mxCell id="FuTrQBoRgf2_QPBbG5Mb-25" value="&lt;span style=&quot;color: rgba(0, 0, 0, 0); font-family: monospace; font-size: 0px; text-align: start; background-color: rgb(236, 236, 236);&quot;&gt;%3CmxGraphModel%3E%3Croot%3E%3CmxCell%20id%3D%220%22%2F%3E%3CmxCell%20id%3D%221%22%20parent%3D%220%22%2F%3E%3CmxCell%20id%3D%222%22%20value%3D%22Abnahme%20ohne%20Vorbehalt%20vorbereiten%22%20style%3D%22rounded%3D1%3BwhiteSpace%3Dwrap%3Bhtml%3D1%3B%22%20vertex%3D%221%22%20parent%3D%221%22%3E%3CmxGeometry%20x%3D%22370%22%20y%3D%221140%22%20width%3D%22120%22%20height%3D%2260%22%20as%3D%22gedfdfds&lt;/span&gt;" style="edgeLabel;html=1;align=center;verticalAlign=middle;resizable=0;points=[];" parent="FuTrQBoRgf2_QPBbG5Mb-22" vertex="1" connectable="0">
          <mxGeometry x="-0.8588" y="-1" relative="1" as="geometry">
            <mxPoint as="offset" />
          </mxGeometry>
        </mxCell>
        <mxCell id="FuTrQBoRgf2_QPBbG5Mb-26" value="&lt;span style=&quot;color: rgba(0, 0, 0, 0); font-family: monospace; font-size: 0px; text-align: start; background-color: rgb(236, 236, 236);&quot;&gt;%3CmxGraphModel%3E%3Croot%3E%3CmxCell%20id%3D%220%22%2F%3E%3CmxCell%20id%3D%221%22%20parent%3D%220%22%2F%3E%3CmxCell%20id%3D%222%22%20value%3D%22Abnahme%20ohne%20Vorbehalt%20vorbereiten%22%20style%3D%22rounded%3D1%3BwhiteSpace%3Dwrap%3Bhtml%3D1%3B%22%20vertex%3D%221%22%20parent%3D%221%22%3E%3CmxGeometry%20x%3D%22370%22%20y%3D%221140%22%20width%3D%22120%22%20height%3D%2260%22%20as%3D%22geometry%22%2F%3E%3C%2FmxCell%3E%3C%2Froot%3E%3C%2FmxGraphModel%3E&lt;/span&gt;" style="edgeLabel;html=1;align=center;verticalAlign=middle;resizable=0;points=[];" parent="FuTrQBoRgf2_QPBbG5Mb-22" vertex="1" connectable="0">
          <mxGeometry x="0.2778" y="1" relative="1" as="geometry">
            <mxPoint as="offset" />
          </mxGeometry>
        </mxCell>
        <mxCell id="FuTrQBoRgf2_QPBbG5Mb-27" value="[Zeit drängt]" style="edgeLabel;html=1;align=center;verticalAlign=middle;resizable=0;points=[];" parent="FuTrQBoRgf2_QPBbG5Mb-22" vertex="1" connectable="0">
          <mxGeometry x="0.2999" relative="1" as="geometry">
            <mxPoint y="-153" as="offset" />
          </mxGeometry>
        </mxCell>
        <mxCell id="FuTrQBoRgf2_QPBbG5Mb-34" style="edgeStyle=orthogonalEdgeStyle;rounded=0;orthogonalLoop=1;jettySize=auto;html=1;entryX=0.5;entryY=0;entryDx=0;entryDy=0;endArrow=open;endFill=0;" parent="1" source="FuTrQBoRgf2_QPBbG5Mb-29" target="FuTrQBoRgf2_QPBbG5Mb-33" edge="1">
          <mxGeometry relative="1" as="geometry" />
        </mxCell>
        <mxCell id="FuTrQBoRgf2_QPBbG5Mb-29" value="" style="rhombus;whiteSpace=wrap;html=1;" parent="1" vertex="1">
          <mxGeometry x="380" y="1310" width="50" height="50" as="geometry" />
        </mxCell>
        <mxCell id="FuTrQBoRgf2_QPBbG5Mb-32" style="edgeStyle=orthogonalEdgeStyle;rounded=0;orthogonalLoop=1;jettySize=auto;html=1;entryX=1;entryY=0.5;entryDx=0;entryDy=0;endArrow=open;endFill=0;" parent="1" source="7nI64X__2j-Hu28zdMV8-121" target="FuTrQBoRgf2_QPBbG5Mb-29" edge="1">
          <mxGeometry relative="1" as="geometry">
            <Array as="points">
              <mxPoint x="480" y="1335" />
            </Array>
          </mxGeometry>
        </mxCell>
        <mxCell id="FuTrQBoRgf2_QPBbG5Mb-37" style="edgeStyle=orthogonalEdgeStyle;rounded=0;orthogonalLoop=1;jettySize=auto;html=1;endArrow=open;endFill=0;" parent="1" source="FuTrQBoRgf2_QPBbG5Mb-33" target="FuTrQBoRgf2_QPBbG5Mb-36" edge="1">
          <mxGeometry relative="1" as="geometry" />
        </mxCell>
        <mxCell id="FuTrQBoRgf2_QPBbG5Mb-33" value="Letter of Acceptance" style="rounded=0;whiteSpace=wrap;html=1;" parent="1" vertex="1">
          <mxGeometry x="345" y="1390" width="120" height="60" as="geometry" />
        </mxCell>
        <mxCell id="FuTrQBoRgf2_QPBbG5Mb-47" style="edgeStyle=orthogonalEdgeStyle;rounded=0;orthogonalLoop=1;jettySize=auto;html=1;entryX=0.5;entryY=0;entryDx=0;entryDy=0;endArrow=open;endFill=0;" parent="1" source="FuTrQBoRgf2_QPBbG5Mb-38" target="FuTrQBoRgf2_QPBbG5Mb-44" edge="1">
          <mxGeometry relative="1" as="geometry" />
        </mxCell>
        <mxCell id="FuTrQBoRgf2_QPBbG5Mb-38" value="Unterschrift setzen" style="rounded=1;whiteSpace=wrap;html=1;" parent="1" vertex="1">
          <mxGeometry x="170" y="1560" width="120" height="60" as="geometry" />
        </mxCell>
        <mxCell id="FuTrQBoRgf2_QPBbG5Mb-49" style="edgeStyle=orthogonalEdgeStyle;rounded=0;orthogonalLoop=1;jettySize=auto;html=1;endArrow=open;endFill=0;" parent="1" source="FuTrQBoRgf2_QPBbG5Mb-40" target="FuTrQBoRgf2_QPBbG5Mb-46" edge="1">
          <mxGeometry relative="1" as="geometry" />
        </mxCell>
        <mxCell id="FuTrQBoRgf2_QPBbG5Mb-40" value="Unterschrift setzen" style="rounded=1;whiteSpace=wrap;html=1;" parent="1" vertex="1">
          <mxGeometry x="730" y="1550" width="120" height="60" as="geometry" />
        </mxCell>
        <mxCell id="FuTrQBoRgf2_QPBbG5Mb-41" style="edgeStyle=orthogonalEdgeStyle;rounded=0;orthogonalLoop=1;jettySize=auto;html=1;endArrow=open;endFill=0;" parent="1" source="FuTrQBoRgf2_QPBbG5Mb-36" target="FuTrQBoRgf2_QPBbG5Mb-38" edge="1">
          <mxGeometry relative="1" as="geometry">
            <Array as="points">
              <mxPoint x="360" y="1530" />
              <mxPoint x="230" y="1530" />
            </Array>
          </mxGeometry>
        </mxCell>
        <mxCell id="FuTrQBoRgf2_QPBbG5Mb-43" style="edgeStyle=orthogonalEdgeStyle;rounded=0;orthogonalLoop=1;jettySize=auto;html=1;endArrow=open;endFill=0;" parent="1" source="FuTrQBoRgf2_QPBbG5Mb-36" target="FuTrQBoRgf2_QPBbG5Mb-40" edge="1">
          <mxGeometry relative="1" as="geometry">
            <Array as="points">
              <mxPoint x="460" y="1510" />
              <mxPoint x="790" y="1510" />
            </Array>
          </mxGeometry>
        </mxCell>
        <mxCell id="FuTrQBoRgf2_QPBbG5Mb-52" style="edgeStyle=orthogonalEdgeStyle;rounded=0;orthogonalLoop=1;jettySize=auto;html=1;endArrow=open;endFill=0;" parent="1" source="FuTrQBoRgf2_QPBbG5Mb-45" target="FuTrQBoRgf2_QPBbG5Mb-50" edge="1">
          <mxGeometry relative="1" as="geometry">
            <Array as="points">
              <mxPoint x="600" y="1740" />
              <mxPoint x="405" y="1740" />
            </Array>
          </mxGeometry>
        </mxCell>
        <mxCell id="FuTrQBoRgf2_QPBbG5Mb-45" value="Letter of Acceptance (unterschrieben)" style="rounded=0;whiteSpace=wrap;html=1;" parent="1" vertex="1">
          <mxGeometry x="540" y="1652" width="120" height="60" as="geometry" />
        </mxCell>
        <mxCell id="FuTrQBoRgf2_QPBbG5Mb-48" style="edgeStyle=orthogonalEdgeStyle;rounded=0;orthogonalLoop=1;jettySize=auto;html=1;endArrow=open;endFill=0;" parent="1" source="FuTrQBoRgf2_QPBbG5Mb-39" edge="1">
          <mxGeometry relative="1" as="geometry">
            <mxPoint x="595" y="1650" as="targetPoint" />
          </mxGeometry>
        </mxCell>
        <mxCell id="FuTrQBoRgf2_QPBbG5Mb-57" value="" style="ellipse;html=1;shape=endState;fillColor=#000000;strokeColor=default;" parent="1" vertex="1">
          <mxGeometry x="975" y="1940" width="30" height="30" as="geometry" />
        </mxCell>
        <mxCell id="FuTrQBoRgf2_QPBbG5Mb-59" style="edgeStyle=orthogonalEdgeStyle;rounded=0;orthogonalLoop=1;jettySize=auto;html=1;entryX=0.5;entryY=0;entryDx=0;entryDy=0;endArrow=open;endFill=0;" parent="1" source="FuTrQBoRgf2_QPBbG5Mb-54" target="FuTrQBoRgf2_QPBbG5Mb-57" edge="1">
          <mxGeometry relative="1" as="geometry" />
        </mxCell>
      </root>
    </mxGraphModel>
  </diagram>
</mxfile>
